{
	"asset":{
		"generator":"Khronos glTF Blender I/O v3.6.28",
		"version":"2.0"
	},
	"extensionsUsed":[
		"KHR_materials_specular",
		"KHR_materials_ior"
	],
	"scene":0,
	"scenes":[
		{
			"name":"Scene",
			"nodes":[
				0,
				1
			]
		}
	],
	"nodes":[
		{
			"mesh":0,
			"name":"Quadro",
			"scale":[
				0.02500000037252903,
				1.5,
				4
			],
			"translation":[
				9.949999809265137,
				2.5,
				0
			]
		},
		{
			"mesh":1,
			"name":"BordaQuadro",
			"scale":[
				0.02500000037252903,
				1.5,
				4
			],
			"translation":[
				9.949999809265137,
				2.5,
				0
			]
		}
	],
	"materials":[
		{
			"doubleSided":true,
			"extensions":{
				"KHR_materials_specular":{
					"specularColorFactor":[
						2.371357614441398,
						2.371357614441398,
						2.371357614441398
					]
				},
				"KHR_materials_ior":{
					"ior":1.4500000476837158
				}
			},
			"name":"BoardMAT",
			"pbrMetallicRoughness":{
				"metallicFactor":0.5,
				"roughnessFactor":0.45205479860305786
			}
		},
		{
			"doubleSided":true,
			"name":"BoardFrameMat",
			"pbrMetallicRoughness":{
				"baseColorFactor":[
					0.16528216004371643,
					0.16528216004371643,
					0.16528216004371643,
					1
				],
				"roughnessFactor":0.5
			}
		}
	],
	"meshes":[
		{
			"name":"Cube.006",
			"primitives":[
				{
					"attributes":{
						"POSITION":0,
						"NORMAL":1,
						"TEXCOORD_0":2
					},
					"indices":3,
					"material":0
				}
			]
		},
		{
			"name":"Cube.007",
			"primitives":[
				{
					"attributes":{
						"POSITION":4,
						"NORMAL":5,
						"TEXCOORD_0":6
					},
					"indices":7,
					"material":1
				}
			]
		}
	],
	"accessors":[
		{
			"bufferView":0,
			"componentType":5126,
			"count":24,
			"max":[
				1,
				1,
				1
			],
			"min":[
				-1,
				-1,
				-1
			],
			"type":"VEC3"
		},
		{
			"bufferView":1,
			"componentType":5126,
			"count":24,
			"type":"VEC3"
		},
		{
			"bufferView":2,
			"componentType":5126,
			"count":24,
			"type":"VEC2"
		},
		{
			"bufferView":3,
			"componentType":5123,
			"count":36,
			"type":"SCALAR"
		},
		{
			"bufferView":4,
			"componentType":5126,
			"count":80,
			"max":[
				1.000030517578125,
				1.033333420753479,
				1.0125000476837158
			],
			"min":[
				-0.999969482421875,
				-1.0333331823349,
				-1.0125000476837158
			],
			"type":"VEC3"
		},
		{
			"bufferView":5,
			"componentType":5126,
			"count":80,
			"type":"VEC3"
		},
		{
			"bufferView":6,
			"componentType":5126,
			"count":80,
			"type":"VEC2"
		},
		{
			"bufferView":7,
			"componentType":5123,
			"count":192,
			"type":"SCALAR"
		}
	],
	"bufferViews":[
		{
			"buffer":0,
			"byteLength":288,
			"byteOffset":0,
			"target":34962
		},
		{
			"buffer":0,
			"byteLength":288,
			"byteOffset":288,
			"target":34962
		},
		{
			"buffer":0,
			"byteLength":192,
			"byteOffset":576,
			"target":34962
		},
		{
			"buffer":0,
			"byteLength":72,
			"byteOffset":768,
			"target":34963
		},
		{
			"buffer":0,
			"byteLength":960,
			"byteOffset":840,
			"target":34962
		},
		{
			"buffer":0,
			"byteLength":960,
			"byteOffset":1800,
			"target":34962
		},
		{
			"buffer":0,
			"byteLength":640,
			"byteOffset":2760,
			"target":34962
		},
		{
			"buffer":0,
			"byteLength":384,
			"byteOffset":3400,
			"target":34963
		}
	],
	"buffers":[
		{
			"byteLength":3784,
			"uri":"data:application/octet-stream;base64,"
		}
	]
}
