{
	"asset":{
		"generator":"Khronos glTF Blender I/O v3.6.28",
		"version":"2.0"
	},
	"extensionsUsed":[
		"KHR_texture_transform"
	],
	"extensionsRequired":[
		"KHR_texture_transform"
	],
	"scene":0,
	"scenes":[
		{
			"name":"Scene",
			"nodes":[
				0,
				1,
				2,
				3,
				4,
				5
			]
		}
	],
	"nodes":[
		{
			"mesh":0,
			"name":"Piso"
		},
		{
			"mesh":1,
			"name":"Parede1",
			"translation":[
				-10.100000381469727,
				0,
				0
			]
		},
		{
			"mesh":2,
			"name":"Parede2",
			"translation":[
				10.100000381469727,
				0,
				0
			]
		},
		{
			"mesh":3,
			"name":"Parede3",
			"translation":[
				0,
				0,
				-5.099999904632568
			]
		},
		{
			"mesh":4,
			"name":"Parede4",
			"translation":[
				0,
				0,
				5.099999904632568
			]
		},
		{
			"mesh":5,
			"name":"Teto",
			"translation":[
				0,
				5.199999809265137,
				0
			]
		}
	],
	"materials":[
		{
			"doubleSided":true,
			"name":"PisoMat",
			"pbrMetallicRoughness":{
				"baseColorFactor":[
					0.800000011920929,
					0.800000011920929,
					0.800000011920929,
					1
				],
				"metallicFactor":0,
				"roughnessFactor":0.5
			}
		},
		{
			"doubleSided":true,
			"name":"Material",
			"pbrMetallicRoughness":{
				"baseColorTexture":{
					"extensions":{
						"KHR_texture_transform":{
							"offset":[
								1,
								-16.72000002861023
							],
							"scale":[
								32,
								19
							]
						}
					},
					"index":0
				},
				"metallicFactor":0,
				"roughnessFactor":0.5
			}
		},
		{
			"doubleSided":true,
			"name":"ParedeMat1",
			"pbrMetallicRoughness":{
				"baseColorFactor":[
					0.0039704423397779465,
					0.004713802598416805,
					0.8000000715255737,
					1
				],
				"metallicFactor":0,
				"roughnessFactor":0.5
			}
		},
		{
			"doubleSided":true,
			"name":"ParedeMat2",
			"pbrMetallicRoughness":{
				"baseColorFactor":[
					0.3263755440711975,
					0.3263755440711975,
					0.3263755440711975,
					1
				],
				"metallicFactor":0,
				"roughnessFactor":0.5
			}
		},
		{
			"doubleSided":true,
			"name":"TetoMat",
			"pbrMetallicRoughness":{
				"baseColorFactor":[
					0.800000011920929,
					0.800000011920929,
					0.800000011920929,
					1
				],
				"metallicFactor":0,
				"roughnessFactor":0.5
			}
		}
	],
	"meshes":[
		{
			"name":"Cube",
			"primitives":[
				{
					"attributes":{
						"POSITION":0,
						"NORMAL":1,
						"TEXCOORD_0":2
					},
					"indices":3,
					"material":0
				},
				{
					"attributes":{
						"POSITION":4,
						"NORMAL":5,
						"TEXCOORD_0":6
					},
					"indices":7,
					"material":1
				}
			]
		},
		{
			"name":"Cube.001",
			"primitives":[
				{
					"attributes":{
						"POSITION":8,
						"NORMAL":9,
						"TEXCOORD_0":10
					},
					"indices":11,
					"material":2
				}
			]
		},
		{
			"name":"Cube.002",
			"primitives":[
				{
					"attributes":{
						"POSITION":12,
						"NORMAL":13,
						"TEXCOORD_0":14
					},
					"indices":11,
					"material":2
				}
			]
		},
		{
			"name":"Cube.003",
			"primitives":[
				{
					"attributes":{
						"POSITION":15,
						"NORMAL":16,
						"TEXCOORD_0":17
					},
					"indices":11,
					"material":3
				}
			]
		},
		{
			"name":"Cube.004",
			"primitives":[
				{
					"attributes":{
						"POSITION":18,
						"NORMAL":19,
						"TEXCOORD_0":20
					},
					"indices":11,
					"material":3
				}
			]
		},
		{
			"name":"Cube.005",
			"primitives":[
				{
					"attributes":{
						"POSITION":21,
						"NORMAL":22,
						"TEXCOORD_0":23
					},
					"indices":24,
					"material":4
				}
			]
		}
	],
	"textures":[
		{
			"sampler":0,
			"source":0
		}
	],
	"images":[
		{
			"bufferView":8,
			"mimeType":"image/png",
			"name":"PisoTexture"
		}
	],
	"accessors":[
		{
			"bufferView":0,
			"componentType":5126,
			"count":28,
			"max":[
				10.199999809265137,
				0.20000000298023224,
				5.199999809265137
			],
			"min":[
				-10.199999809265137,
				0,
				-5.199999809265137
			],
			"type":"VEC3"
		},
		{
			"bufferView":1,
			"componentType":5126,
			"count":28,
			"type":"VEC3"
		},
		{
			"bufferView":2,
			"componentType":5126,
			"count":28,
			"type":"VEC2"
		},
		{
			"bufferView":3,
			"componentType":5123,
			"count":54,
			"type":"SCALAR"
		},
		{
			"bufferView":4,
			"componentType":5126,
			"count":4,
			"max":[
				10,
				0.20000000298023224,
				5
			],
			"min":[
				-10,
				0.20000000298023224,
				-5
			],
			"type":"VEC3"
		},
		{
			"bufferView":5,
			"componentType":5126,
			"count":4,
			"type":"VEC3"
		},
		{
			"bufferView":6,
			"componentType":5126,
			"count":4,
			"type":"VEC2"
		},
		{
			"bufferView":7,
			"componentType":5123,
			"count":6,
			"type":"SCALAR"
		},
		{
			"bufferView":9,
			"componentType":5126,
			"count":24,
			"max":[
				0.10000000149011612,
				5.199999809265137,
				5.199999809265137
			],
			"min":[
				-0.10000000149011612,
				0.19999980926513672,
				-5.199999809265137
			],
			"type":"VEC3"
		},
		{
			"bufferView":10,
			"componentType":5126,
			"count":24,
			"type":"VEC3"
		},
		{
			"bufferView":11,
			"componentType":5126,
			"count":24,
			"type":"VEC2"
		},
		{
			"bufferView":12,
			"componentType":5123,
			"count":36,
			"type":"SCALAR"
		},
		{
			"bufferView":13,
			"componentType":5126,
			"count":24,
			"max":[
				0.10000000149011612,
				5.199999809265137,
				5.199999809265137
			],
			"min":[
				-0.10000000149011612,
				0.19999980926513672,
				-5.199999809265137
			],
			"type":"VEC3"
		},
		{
			"bufferView":14,
			"componentType":5126,
			"count":24,
			"type":"VEC3"
		},
		{
			"bufferView":15,
			"componentType":5126,
			"count":24,
			"type":"VEC2"
		},
		{
			"bufferView":16,
			"componentType":5126,
			"count":24,
			"max":[
				10,
				5.199999809265137,
				0.10000000149011612
			],
			"min":[
				-10,
				0.19999957084655762,
				-0.10000000149011612
			],
			"type":"VEC3"
		},
		{
			"bufferView":17,
			"componentType":5126,
			"count":24,
			"type":"VEC3"
		},
		{
			"bufferView":18,
			"componentType":5126,
			"count":24,
			"type":"VEC2"
		},
		{
			"bufferView":19,
			"componentType":5126,
			"count":24,
			"max":[
				10,
				5.199999809265137,
				0.10000000149011612
			],
			"min":[
				-10,
				0.19999957084655762,
				-0.10000000149011612
			],
			"type":"VEC3"
		},
		{
			"bufferView":20,
			"componentType":5126,
			"count":24,
			"type":"VEC3"
		},
		{
			"bufferView":21,
			"componentType":5126,
			"count":24,
			"type":"VEC2"
		},
		{
			"bufferView":22,
			"componentType":5126,
			"count":28,
			"max":[
				10.199999809265137,
				0.20000000298023224,
				5.199999809265137
			],
			"min":[
				-10.199999809265137,
				0,
				-5.199999809265137
			],
			"type":"VEC3"
		},
		{
			"bufferView":23,
			"componentType":5126,
			"count":28,
			"type":"VEC3"
		},
		{
			"bufferView":24,
			"componentType":5126,
			"count":28,
			"type":"VEC2"
		},
		{
			"bufferView":25,
			"componentType":5123,
			"count":60,
			"type":"SCALAR"
		}
	],
	"bufferViews":[
		{
			"buffer":0,
			"byteLength":336,
			"byteOffset":0,
			"target":34962
		},
		{
			"buffer":0,
			"byteLength":336,
			"byteOffset":336,
			"target":34962
		},
		{
			"buffer":0,
			"byteLength":224,
			"byteOffset":672,
			"target":34962
		},
		{
			"buffer":0,
			"byteLength":108,
			"byteOffset":896,
			"target":34963
		},
		{
			"buffer":0,
			"byteLength":48,
			"byteOffset":1004,
			"target":34962
		},
		{
			"buffer":0,
			"byteLength":48,
			"byteOffset":1052,
			"target":34962
		},
		{
			"buffer":0,
			"byteLength":32,
			"byteOffset":1100,
			"target":34962
		},
		{
			"buffer":0,
			"byteLength":12,
			"byteOffset":1132,
			"target":34963
		},
		{
			"buffer":0,
			"byteLength":1800768,
			"byteOffset":1144
		},
		{
			"buffer":0,
			"byteLength":288,
			"byteOffset":1801912,
			"target":34962
		},
		{
			"buffer":0,
			"byteLength":288,
			"byteOffset":1802200,
			"target":34962
		},
		{
			"buffer":0,
			"byteLength":192,
			"byteOffset":1802488,
			"target":34962
		},
		{
			"buffer":0,
			"byteLength":72,
			"byteOffset":1802680,
			"target":34963
		},
		{
			"buffer":0,
			"byteLength":288,
			"byteOffset":1802752,
			"target":34962
		},
		{
			"buffer":0,
			"byteLength":288,
			"byteOffset":1803040,
			"target":34962
		},
		{
			"buffer":0,
			"byteLength":192,
			"byteOffset":1803328,
			"target":34962
		},
		{
			"buffer":0,
			"byteLength":288,
			"byteOffset":1803520,
			"target":34962
		},
		{
			"buffer":0,
			"byteLength":288,
			"byteOffset":1803808,
			"target":34962
		},
		{
			"buffer":0,
			"byteLength":192,
			"byteOffset":1804096,
			"target":34962
		},
		{
			"buffer":0,
			"byteLength":288,
			"byteOffset":1804288,
			"target":34962
		},
		{
			"buffer":0,
			"byteLength":288,
			"byteOffset":1804576,
			"target":34962
		},
		{
			"buffer":0,
			"byteLength":192,
			"byteOffset":1804864,
			"target":34962
		},
		{
			"buffer":0,
			"byteLength":336,
			"byteOffset":1805056,
			"target":34962
		},
		{
			"buffer":0,
			"byteLength":336,
			"byteOffset":1805392,
			"target":34962
		},
		{
			"buffer":0,
			"byteLength":224,
			"byteOffset":1805728,
			"target":34962
		},
		{
			"buffer":0,
			"byteLength":120,
			"byteOffset":1805952,
			"target":34963
		}
	],
	"samplers":[
		{
			"magFilter":9729,
			"minFilter":9987
		}
	],
	"buffers":[
		{
			"byteLength":1806072,
			"uri":"data:application/octet-stream;base64,"
		}
	]
}
